<?xml version="1.0" standalone="no"?>
<!DOCTYPE svg PUBLIC "-//W3C//DTD SVG 20010904//EN"
 "http://www.w3.org/TR/2001/REC-SVG-20010904/DTD/svg10.dtd">
<svg version="1.0" xmlns="http://www.w3.org/2000/svg"
 width="1024.000000pt" height="1024.000000pt" viewBox="0 0 1024.000000 1024.000000"
 preserveAspectRatio="xMidYMid meet">
<metadata>
Created by potrace 1.14, written by Peter Selinger 2001-2017
</metadata>
<g transform="translate(0.000000,1024.000000) scale(0.100000,-0.100000)"
fill="#000000" stroke="none">
<path d="M2957 8905 c-22 -7 -47 -22 -57 -32 -9 -10 -219 -216 -465 -458 -247
-242 -490 -482 -540 -532 -51 -51 -96 -93 -99 -93 -8 0 -53 42 -283 265 -74
72 -148 138 -163 148 -36 23 -113 24 -163 3 -42 -17 -346 -315 -371 -364 -24
-46 -27 -112 -8 -155 10 -20 134 -155 292 -315 151 -154 341 -347 422 -430
162 -166 199 -190 289 -189 92 0 134 26 250 150 116 125 319 328 968 967 484
477 483 476 476 583 -4 53 -35 121 -68 149 -11 10 -76 70 -143 134 -143 135
-176 161 -224 174 -46 13 -67 12 -113 -5z"/>
<path d="M4255 8370 c-83 -18 -161 -90 -188 -171 -14 -47 -16 -95 -14 -379 l2
-325 28 -57 c34 -69 88 -115 158 -133 42 -11 490 -13 2547 -12 2375 2 2499 3
2535 20 54 25 122 99 140 152 22 62 24 659 3 729 -19 63 -69 122 -130 154
l-51 26 -2500 1 c-1375 1 -2513 -1 -2530 -5z"/>
<path d="M2942 6204 c-20 -10 -520 -496 -1004 -978 -75 -75 -141 -136 -145
-136 -4 0 -26 19 -49 43 -89 91 -347 333 -376 351 -19 12 -52 20 -91 22 -77 4
-143 -23 -194 -80 -20 -22 -84 -92 -142 -154 -58 -62 -114 -129 -125 -148 -23
-43 -25 -119 -4 -159 24 -45 868 -884 913 -907 46 -24 116 -25 168 -3 45 19
1564 1530 1591 1583 25 49 28 130 5 177 -28 57 -322 350 -382 381 -52 27 -122
30 -165 8z"/>
<path d="M4295 5659 c-33 -4 -73 -11 -88 -18 -42 -17 -103 -78 -129 -130 -23
-45 -23 -51 -23 -391 0 -340 0 -346 23 -392 38 -76 105 -130 180 -145 15 -3
1146 -5 2513 -5 1970 -1 2494 2 2525 12 39 13 98 51 122 80 7 8 23 37 37 63
23 47 24 49 24 385 0 333 0 339 -23 388 -33 70 -85 118 -152 139 -53 17 -197
18 -2503 19 -1345 0 -2473 -2 -2506 -5z"/>
<path d="M1778 3215 c-2 -2 -19 -6 -38 -9 -131 -21 -224 -58 -334 -132 -65
-43 -172 -152 -224 -227 -41 -58 -100 -187 -109 -236 -2 -14 -8 -42 -12 -62
-13 -57 -13 -211 -1 -281 21 -119 66 -225 136 -324 45 -62 152 -169 201 -201
16 -10 30 -20 33 -23 26 -28 198 -98 260 -107 19 -2 49 -8 67 -13 33 -8 230
-6 273 4 14 3 36 7 50 10 63 11 192 71 271 125 71 47 177 164 229 251 86 143
115 266 107 452 -5 119 -23 212 -53 272 -7 16 -14 33 -14 38 0 5 -21 42 -46
81 -57 87 -159 195 -235 247 -58 40 -160 90 -183 90 -7 0 -16 3 -20 7 -3 4
-12 8 -19 10 -91 21 -128 26 -224 28 -62 1 -113 1 -115 0z"/>
<path d="M4220 2930 c-55 -21 -122 -84 -147 -136 -16 -35 -18 -73 -18 -384 l0
-345 27 -56 c15 -30 45 -69 66 -86 80 -65 -107 -60 2632 -59 l2495 1 57 28
c52 26 90 63 128 127 21 36 26 683 5 750 -19 61 -66 115 -129 148 l-51 27
-2510 1 c-2356 1 -2513 0 -2555 -16z"/>
</g>
</svg>
